<svg width="160" height="22" viewBox="0 0 160 22" fill="none" xmlns="http://www.w3.org/2000/svg">
<path d="M16.4812 16.7919H6.4691L4.4953 21.4262H0.662109L9.67296 1.40171H13.3345L22.374 21.4262H18.4836L16.4812 16.7919ZM15.2511 13.8741L11.4751 5.12054L7.72776 13.8741H15.2511Z" fill="white"/>
<path d="M30.7848 2.88924C29.2782 2.88924 28.5249 3.70929 28.5249 5.34939V6.26479H32.73V9.12543H28.6393V21.4262H25.0636V9.12543H22.5463V6.26479H25.0636V5.29218C25.0636 3.65208 25.5404 2.36479 26.4939 1.43032C27.4474 0.476772 28.7919 0 30.5273 0C31.9004 0 32.9779 0.276528 33.7598 0.829584L32.7586 3.51858C32.1483 3.09902 31.4904 2.88924 30.7848 2.88924Z" fill="white"/>
<path d="M44.3194 20.5966C43.8998 20.9398 43.3849 21.1973 42.7747 21.3689C42.1835 21.5406 41.5541 21.6264 40.8867 21.6264C39.2085 21.6264 37.9117 21.1878 36.9963 20.3105C36.0809 19.4332 35.6232 18.1555 35.6232 16.4773V9.12543H33.1059V6.26479H35.6232V2.77482H39.1989V6.26479H43.2896V9.12543H39.1989V16.3914C39.1989 17.1352 39.3801 17.7073 39.7424 18.1078C40.1048 18.4892 40.6292 18.6799 41.3158 18.6799C42.1167 18.6799 42.7842 18.4702 43.3182 18.0506L44.3194 20.5966Z" fill="white"/>
<path d="M61.1182 13.8741C61.1182 14.122 61.0991 14.4748 61.061 14.9325H49.0751C49.2849 16.0577 49.8284 16.954 50.7056 17.6215C51.602 18.2699 52.7081 18.5941 54.0239 18.5941C55.7021 18.5941 57.0848 18.0411 58.1718 16.935L60.0884 19.1376C59.4018 19.9577 58.5341 20.5775 57.4852 20.9971C56.4364 21.4166 55.254 21.6264 53.9381 21.6264C52.2599 21.6264 50.7819 21.2927 49.5042 20.6252C48.2265 19.9577 47.2348 19.0328 46.5292 17.8504C45.8426 16.6489 45.4994 15.2949 45.4994 13.7883C45.4994 12.3007 45.8331 10.9658 46.5006 9.78337C47.1871 8.5819 48.1311 7.64743 49.3326 6.97995C50.534 6.31247 51.888 5.97873 53.3946 5.97873C54.8821 5.97873 56.2075 6.31247 57.3708 6.97995C58.5532 7.62836 59.4686 8.5533 60.117 9.75476C60.7844 10.9372 61.1182 12.3103 61.1182 13.8741ZM53.3946 8.83936C52.2504 8.83936 51.2778 9.18264 50.4768 9.86919C49.6949 10.5367 49.2181 11.433 49.0465 12.5582H57.7141C57.5615 11.4521 57.0943 10.5557 56.3124 9.86919C55.5305 9.18264 54.5579 8.83936 53.3946 8.83936Z" fill="white"/>
<path d="M67.957 8.38166C68.9868 6.77971 70.7985 5.97873 73.3921 5.97873V9.38288C73.087 9.32567 72.8105 9.29706 72.5625 9.29706C71.1704 9.29706 70.0834 9.70709 69.3015 10.5271C68.5196 11.3281 68.1286 12.4914 68.1286 14.0171V21.4262H64.5529V6.15036H67.957V8.38166Z" fill="white"/>
<path d="M82.7807 21.7122C81.2359 21.7122 79.7389 21.4929 78.2895 21.0543C76.8592 20.6156 75.7245 20.034 74.8854 19.3093L76.1727 16.42C76.9927 17.0685 77.9939 17.6024 79.1763 18.022C80.3778 18.4225 81.5792 18.6227 82.7807 18.6227C84.2682 18.6227 85.3743 18.3843 86.0989 17.9076C86.8427 17.4308 87.2146 16.8015 87.2146 16.0196C87.2146 15.4474 87.0048 14.9802 86.5852 14.6178C86.1848 14.2364 85.6699 13.9408 85.0405 13.731C84.4112 13.5213 83.553 13.2829 82.466 13.0159C80.9403 12.6535 79.7008 12.2912 78.7472 11.9288C77.8128 11.5665 77.0023 11.0039 76.3157 10.2411C75.6483 9.45917 75.3145 8.41027 75.3145 7.09437C75.3145 5.98826 75.6101 4.98704 76.2013 4.09071C76.8116 3.1753 77.7174 2.45061 78.9189 1.91662C80.1394 1.38264 81.6269 1.11565 83.3814 1.11565C84.6019 1.11565 85.8034 1.26821 86.9857 1.57335C88.1681 1.87848 89.1884 2.31711 90.0466 2.88924L88.8737 5.77848C87.9965 5.26357 87.0811 4.87262 86.1275 4.60562C85.174 4.33863 84.2491 4.20513 83.3528 4.20513C81.8843 4.20513 80.7878 4.45305 80.0631 4.9489C79.3575 5.44474 79.0047 6.10269 79.0047 6.92274C79.0047 7.49486 79.2049 7.9621 79.6054 8.32445C80.025 8.68679 80.5494 8.97286 81.1787 9.18264C81.8081 9.39242 82.6662 9.63081 83.7533 9.8978C85.2408 10.2411 86.4613 10.6034 87.4148 10.9848C88.3683 11.3472 89.1788 11.9098 89.8463 12.6726C90.5329 13.4355 90.8761 14.4653 90.8761 15.7621C90.8761 16.8682 90.571 17.8694 89.9607 18.7658C89.3695 19.6621 88.4637 20.3773 87.2432 20.9112C86.0227 21.4452 84.5351 21.7122 82.7807 21.7122Z" fill="white"/>
<path d="M102.888 5.97873C104.814 5.97873 106.359 6.54132 107.522 7.6665C108.685 8.79169 109.267 10.4604 109.267 12.6726V21.4262H105.691V13.1303C105.691 11.7954 105.377 10.7941 104.747 10.1266C104.118 9.44009 103.222 9.09682 102.058 9.09682C100.742 9.09682 99.7031 9.49731 98.9403 10.2983C98.1775 11.0802 97.7961 12.2149 97.7961 13.7024V21.4262H94.2203V0.200244H97.7961V7.92396C98.3873 7.29462 99.1119 6.81785 99.9701 6.49364C100.847 6.15037 101.82 5.97873 102.888 5.97873Z" fill="white"/>
<path d="M120.808 21.6264C119.263 21.6264 117.871 21.2927 116.632 20.6252C115.392 19.9577 114.42 19.0328 113.714 17.8504C113.027 16.6489 112.684 15.2949 112.684 13.7883C112.684 12.2817 113.027 10.9372 113.714 9.75476C114.42 8.57237 115.392 7.64743 116.632 6.97995C117.871 6.31247 119.263 5.97873 120.808 5.97873C122.372 5.97873 123.774 6.31247 125.013 6.97995C126.253 7.64743 127.216 8.57237 127.902 9.75476C128.608 10.9372 128.961 12.2817 128.961 13.7883C128.961 15.2949 128.608 16.6489 127.902 17.8504C127.216 19.0328 126.253 19.9577 125.013 20.6252C123.774 21.2927 122.372 21.6264 120.808 21.6264ZM120.808 18.5655C122.124 18.5655 123.211 18.1269 124.069 17.2496C124.927 16.3724 125.356 15.2186 125.356 13.7883C125.356 12.3579 124.927 11.2042 124.069 10.3269C123.211 9.44963 122.124 9.011 120.808 9.011C119.492 9.011 118.405 9.44963 117.547 10.3269C116.708 11.2042 116.288 12.3579 116.288 13.7883C116.288 15.2186 116.708 16.3724 117.547 17.2496C118.405 18.1269 119.492 18.5655 120.808 18.5655Z" fill="white"/>
<path d="M139.246 21.6264C137.701 21.6264 136.309 21.2927 135.069 20.6252C133.829 19.9577 132.857 19.0328 132.151 17.8504C131.465 16.6489 131.121 15.2949 131.121 13.7883C131.121 12.2817 131.465 10.9372 132.151 9.75476C132.857 8.57237 133.829 7.64743 135.069 6.97995C136.309 6.31247 137.701 5.97873 139.246 5.97873C140.809 5.97873 142.211 6.31247 143.451 6.97995C144.69 7.64743 145.653 8.57237 146.34 9.75476C147.045 10.9372 147.398 12.2817 147.398 13.7883C147.398 15.2949 147.045 16.6489 146.34 17.8504C145.653 19.0328 144.69 19.9577 143.451 20.6252C142.211 21.2927 140.809 21.6264 139.246 21.6264ZM139.246 18.5655C140.561 18.5655 141.648 18.1269 142.507 17.2496C143.365 16.3724 143.794 15.2186 143.794 13.7883C143.794 12.3579 143.365 11.2042 142.507 10.3269C141.648 9.44963 140.561 9.011 139.246 9.011C137.93 9.011 136.843 9.44963 135.984 10.3269C135.145 11.2042 134.726 12.3579 134.726 13.7883C134.726 15.2186 135.145 16.3724 135.984 17.2496C136.843 18.1269 137.93 18.5655 139.246 18.5655Z" fill="white"/>
<path d="M160 20.5966C159.58 20.9398 159.066 21.1973 158.455 21.3689C157.864 21.5406 157.235 21.6264 156.567 21.6264C154.889 21.6264 153.592 21.1878 152.677 20.3105C151.762 19.4332 151.304 18.1555 151.304 16.4773V9.12543H148.786V6.26479H151.304V2.77482H154.88V6.26479H158.97V9.12543H154.88V16.3914C154.88 17.1352 155.061 17.7073 155.423 18.1078C155.785 18.4892 156.31 18.6799 156.996 18.6799C157.797 18.6799 158.465 18.4702 158.999 18.0506L160 20.5966Z" fill="white"/>
</svg>
