<svg width="36" height="31" viewBox="0 0 36 31" fill="none" xmlns="http://www.w3.org/2000/svg">
<path d="M21.7044 19.1994C20.7493 19.1872 19.7999 19.0568 18.88 18.8116C17.154 18.361 15.4469 17.5502 14.4286 16.6959C12.716 15.2603 11.9915 13.2137 12.627 11.6038C13.0109 10.6294 14.2161 8.99615 17.9686 8.99615H23.4949C23.32 8.35703 23.1113 7.72679 22.8695 7.10787C21.5263 3.69154 19.5833 1.95947 17.0939 1.95947C15.5637 1.95947 14.2851 2.72137 13.1845 4.28874C12.2252 5.65633 11.4429 7.59349 10.8609 10.046C9.84486 14.3305 9.81037 18.6947 9.81037 18.7383L7.7583 18.7298C7.7583 18.5438 7.79168 14.1318 8.85333 9.64116C9.48987 6.94635 10.3712 4.78286 11.4718 3.20911C12.9619 1.08387 14.8537 0 17.0939 0C20.4791 0 23.1399 2.21982 24.7903 6.41929C25.1169 7.26186 25.3904 8.12236 25.6093 8.99615H29.1782V10.9556H26.0288C26.2721 12.2924 26.4053 13.6454 26.4272 15.0021C26.4272 16.7798 25.606 18.1134 24.1148 18.7584C23.3591 19.0836 22.5156 19.1994 21.7044 19.1994ZM17.9719 10.9556C16.1302 10.9556 14.8816 11.4434 14.5466 12.2945C14.2116 13.1457 14.7235 14.3358 15.7807 15.2231C16.5697 15.883 17.9975 16.5503 19.4208 16.9233C20.9944 17.3335 22.3965 17.3483 23.2679 16.9754C23.7431 16.7703 24.3752 16.3378 24.3752 15.0042C24.347 13.6455 24.2015 12.2914 23.94 10.9556H17.9719Z" fill="url(#paint0_angular_866_95)"/>
<path d="M1.36187 30.9746C1.10398 30.9746 0.871704 30.9296 0.665038 30.8397C0.460139 30.748 0.297633 30.613 0.17752 30.4348C0.0591734 30.2566 0 30.0369 0 29.7757C0 29.5508 0.0423929 29.3648 0.127179 29.2178C0.211964 29.0707 0.327662 28.9531 0.47427 28.8648C0.620879 28.7766 0.786035 28.71 0.969737 28.665C1.15521 28.6183 1.34686 28.5846 1.54469 28.5638C1.78315 28.5396 1.97657 28.5179 2.12494 28.4989C2.27332 28.4782 2.38107 28.447 2.44819 28.4055C2.51708 28.3622 2.55152 28.2956 2.55152 28.2057V28.1901C2.55152 27.9946 2.49235 27.8432 2.374 27.736C2.25565 27.6287 2.0852 27.5751 1.86264 27.5751C1.62771 27.5751 1.44136 27.6252 1.30358 27.7256C1.16757 27.8259 1.07572 27.9444 1.02803 28.0811L0.132478 27.9565C0.203133 27.7143 0.319713 27.5119 0.482219 27.3493C0.644725 27.1849 0.843442 27.0621 1.07837 26.9808C1.3133 26.8978 1.57295 26.8562 1.85734 26.8562C2.05341 26.8562 2.24859 26.8787 2.44289 26.9237C2.63719 26.9687 2.81471 27.0431 2.97545 27.1469C3.13619 27.249 3.26514 27.3882 3.36229 27.5647C3.4612 27.7412 3.51066 27.9617 3.51066 28.2264V30.8942H2.58862V30.3466H2.55682C2.49853 30.4573 2.41639 30.5611 2.31041 30.658C2.2062 30.7532 2.0746 30.8302 1.91563 30.889C1.75842 30.9461 1.57384 30.9746 1.36187 30.9746ZM1.61093 30.2843C1.80346 30.2843 1.97039 30.2471 2.1117 30.1727C2.25301 30.0966 2.36164 29.9963 2.43759 29.8717C2.51531 29.7471 2.55417 29.6113 2.55417 29.4643V28.9946C2.52414 29.0188 2.47292 29.0413 2.4005 29.062C2.32984 29.0828 2.25036 29.101 2.16204 29.1165C2.07372 29.1321 1.98628 29.146 1.89973 29.1581C1.81318 29.1702 1.73811 29.1806 1.67452 29.1892C1.53144 29.2082 1.40338 29.2394 1.29033 29.2826C1.17729 29.3259 1.08808 29.3864 1.02273 29.4643C0.957373 29.5404 0.924695 29.639 0.924695 29.7601C0.924695 29.9331 0.989167 30.0637 1.11811 30.152C1.24706 30.2402 1.41133 30.2843 1.61093 30.2843Z" fill="#1D1D1D"/>
<path d="M6.38723 26.9081V27.6348H3.98143V26.9081H6.38723ZM4.58288 30.8942V26.5318C4.58288 26.2637 4.63941 26.0405 4.75245 25.8623C4.86727 25.6841 5.02094 25.5509 5.21348 25.4627C5.40601 25.3744 5.61974 25.3303 5.85467 25.3303C6.02071 25.3303 6.1682 25.3433 6.29714 25.3692C6.42609 25.3952 6.52147 25.4186 6.5833 25.4393L6.39253 26.1659C6.3519 26.1538 6.30068 26.1417 6.23885 26.1296C6.17703 26.1158 6.10814 26.1088 6.03219 26.1088C5.85379 26.1088 5.72749 26.1512 5.6533 26.236C5.58088 26.319 5.54467 26.4384 5.54467 26.5941V30.8942H4.58288Z" fill="#1D1D1D"/>
<path d="M9.02136 26.9081V27.6348H6.68181V26.9081H9.02136ZM7.25941 25.9531H8.21855V29.6952C8.21855 29.8215 8.23798 29.9184 8.27684 29.9859C8.31747 30.0516 8.37046 30.0966 8.43581 30.1208C8.50117 30.1451 8.57359 30.1572 8.65308 30.1572C8.71313 30.1572 8.76789 30.1528 8.81735 30.1442C8.86857 30.1355 8.90743 30.1278 8.93393 30.1208L9.09555 30.8552C9.04433 30.8725 8.97102 30.8916 8.87564 30.9123C8.78202 30.9331 8.66721 30.9452 8.5312 30.9487C8.29097 30.9556 8.07459 30.9201 7.88206 30.8423C7.68952 30.7627 7.53673 30.6399 7.42368 30.4738C7.3124 30.3077 7.25764 30.1001 7.25941 29.8509V25.9531Z" fill="#1D1D1D"/>
<path d="M11.4323 30.972C11.0242 30.972 10.6719 30.889 10.3751 30.7229C10.0801 30.5551 9.85314 30.3181 9.69417 30.0118C9.53519 29.7039 9.45571 29.3414 9.45571 28.9245C9.45571 28.5145 9.53519 28.1546 9.69417 27.845C9.85491 27.5335 10.0792 27.2913 10.3672 27.1183C10.6551 26.9436 10.9933 26.8562 11.3819 26.8562C11.6328 26.8562 11.8695 26.896 12.092 26.9756C12.3163 27.0535 12.5142 27.1746 12.6855 27.3389C12.8586 27.5033 12.9946 27.7126 13.0935 27.9669C13.1925 28.2195 13.2419 28.5205 13.2419 28.87V29.1581H9.90613V28.5249H12.3225C12.3208 28.3449 12.281 28.1849 12.2033 28.0448C12.1256 27.9029 12.0169 27.7913 11.8774 27.71C11.7396 27.6287 11.5789 27.588 11.3952 27.588C11.1991 27.588 11.0269 27.6348 10.8785 27.7282C10.7301 27.8199 10.6144 27.941 10.5314 28.0915C10.4502 28.2403 10.4087 28.4038 10.4069 28.582V29.1347C10.4069 29.3665 10.4502 29.5655 10.5367 29.7316C10.6233 29.8959 10.7443 30.0222 10.8997 30.1105C11.0552 30.197 11.2371 30.2402 11.4455 30.2402C11.5851 30.2402 11.7114 30.2212 11.8244 30.1831C11.9375 30.1433 12.0355 30.0854 12.1185 30.0092C12.2015 29.9331 12.2642 29.8388 12.3066 29.7264L13.2022 29.825C13.1457 30.0568 13.0379 30.2592 12.8789 30.4322C12.7217 30.6035 12.5204 30.7367 12.2748 30.8319C12.0293 30.9253 11.7485 30.972 11.4323 30.972Z" fill="#1D1D1D"/>
<path d="M13.9041 30.8942V26.9081H14.8341V27.5725H14.8765C14.9507 27.3424 15.0779 27.165 15.258 27.0405C15.44 26.9142 15.6475 26.851 15.8807 26.851C15.9337 26.851 15.9929 26.8536 16.0582 26.8588C16.1253 26.8623 16.181 26.8683 16.2251 26.877V27.7412C16.1845 27.7273 16.12 27.7152 16.0317 27.7048C15.9452 27.6927 15.8613 27.6867 15.78 27.6867C15.6051 27.6867 15.4479 27.7239 15.3084 27.7982C15.1706 27.8709 15.062 27.9721 14.9825 28.1019C14.903 28.2316 14.8633 28.3813 14.8633 28.5508V30.8942H13.9041Z" fill="#1D1D1D"/>
<path d="M19.6753 27.8008L19.1136 27.9565C19.0783 27.8648 19.0262 27.7758 18.9573 27.6892C18.8902 27.601 18.7983 27.5284 18.6817 27.4713C18.5652 27.4142 18.4159 27.3856 18.234 27.3856C17.9849 27.3856 17.7774 27.4419 17.6113 27.5543C17.4471 27.665 17.3649 27.806 17.3649 27.9773C17.3649 28.1295 17.4214 28.2498 17.5345 28.338C17.6475 28.4263 17.8242 28.4998 18.0644 28.5586L18.6685 28.7039C19.0324 28.7904 19.3035 28.9228 19.4819 29.101C19.6603 29.2774 19.7495 29.5049 19.7495 29.7835C19.7495 30.0118 19.6824 30.216 19.5482 30.3959C19.4157 30.5758 19.2302 30.7177 18.9917 30.8215C18.7533 30.9253 18.476 30.9772 18.1598 30.9772C17.7447 30.9772 17.4011 30.889 17.1291 30.7125C16.8571 30.5361 16.6849 30.2783 16.6124 29.9392L17.2059 29.7939C17.2625 30.0084 17.3693 30.1693 17.5265 30.2765C17.6855 30.3838 17.8931 30.4374 18.1492 30.4374C18.4406 30.4374 18.672 30.3769 18.8434 30.2558C19.0165 30.1329 19.103 29.9859 19.103 29.8146C19.103 29.6762 19.0536 29.5603 18.9547 29.4669C18.8557 29.3717 18.7038 29.3008 18.4989 29.2541L17.8206 29.0984C17.4479 29.0119 17.1742 28.8778 16.9993 28.6961C16.8262 28.5128 16.7396 28.2835 16.7396 28.0084C16.7396 27.7835 16.8041 27.5846 16.933 27.4116C17.0638 27.2386 17.2413 27.1028 17.4656 27.0041C17.6917 26.9055 17.9478 26.8562 18.234 26.8562C18.6367 26.8562 18.9529 26.9427 19.1825 27.1157C19.4139 27.2887 19.5782 27.5171 19.6753 27.8008Z" fill="#1D1D1D"/>
<path d="M21.1668 28.4963V30.8942H20.5415V25.5795H21.1668V27.5309H21.2198C21.3152 27.3251 21.4583 27.1616 21.6491 27.0405C21.8416 26.9176 22.0977 26.8562 22.4174 26.8562C22.6948 26.8562 22.9376 26.9107 23.1461 27.0197C23.3545 27.127 23.5161 27.2922 23.6309 27.5154C23.7475 27.7368 23.8058 28.0188 23.8058 28.3614V30.8942H23.1805V28.4029C23.1805 28.0863 23.0966 27.8415 22.9288 27.6685C22.7628 27.4938 22.5322 27.4064 22.2373 27.4064C22.0324 27.4064 21.8487 27.4488 21.6862 27.5335C21.5254 27.6183 21.3982 27.742 21.3046 27.9046C21.2128 28.0673 21.1668 28.2645 21.1668 28.4963Z" fill="#1D1D1D"/>
<path d="M26.4538 30.9772C26.0864 30.9772 25.7641 30.8916 25.4868 30.7203C25.2112 30.549 24.9957 30.3094 24.8403 30.0015C24.6866 29.6935 24.6098 29.3337 24.6098 28.9219C24.6098 28.5067 24.6866 28.1443 24.8403 27.8346C24.9957 27.5249 25.2112 27.2844 25.4868 27.1131C25.7641 26.9419 26.0864 26.8562 26.4538 26.8562C26.8213 26.8562 27.1427 26.9419 27.4183 27.1131C27.6956 27.2844 27.9111 27.5249 28.0648 27.8346C28.2202 28.1443 28.2979 28.5067 28.2979 28.9219C28.2979 29.3337 28.2202 29.6935 28.0648 30.0015C27.9111 30.3094 27.6956 30.549 27.4183 30.7203C27.1427 30.8916 26.8213 30.9772 26.4538 30.9772ZM26.4538 30.4271C26.7329 30.4271 26.9626 30.357 27.1427 30.2169C27.3229 30.0767 27.4563 29.8925 27.5428 29.6641C27.6294 29.4357 27.6726 29.1883 27.6726 28.9219C27.6726 28.6555 27.6294 28.4072 27.5428 28.1771C27.4563 27.947 27.3229 27.761 27.1427 27.6192C26.9626 27.4773 26.7329 27.4064 26.4538 27.4064C26.1748 27.4064 25.9451 27.4773 25.765 27.6192C25.5848 27.761 25.4514 27.947 25.3649 28.1771C25.2783 28.4072 25.2351 28.6555 25.2351 28.9219C25.2351 29.1883 25.2783 29.4357 25.3649 29.6641C25.4514 29.8925 25.5848 30.0767 25.765 30.2169C25.9451 30.357 26.1748 30.4271 26.4538 30.4271Z" fill="#1D1D1D"/>
<path d="M30.7565 30.9772C30.3891 30.9772 30.0668 30.8916 29.7894 30.7203C29.5139 30.549 29.2984 30.3094 29.143 30.0015C28.9893 29.6935 28.9124 29.3337 28.9124 28.9219C28.9124 28.5067 28.9893 28.1443 29.143 27.8346C29.2984 27.5249 29.5139 27.2844 29.7894 27.1131C30.0668 26.9419 30.3891 26.8562 30.7565 26.8562C31.1239 26.8562 31.4454 26.9419 31.721 27.1131C31.9983 27.2844 32.2138 27.5249 32.3675 27.8346C32.5229 28.1443 32.6006 28.5067 32.6006 28.9219C32.6006 29.3337 32.5229 29.6935 32.3675 30.0015C32.2138 30.3094 31.9983 30.549 31.721 30.7203C31.4454 30.8916 31.1239 30.9772 30.7565 30.9772ZM30.7565 30.4271C31.0356 30.4271 31.2653 30.357 31.4454 30.2169C31.6256 30.0767 31.759 29.8925 31.8455 29.6641C31.9321 29.4357 31.9753 29.1883 31.9753 28.9219C31.9753 28.6555 31.9321 28.4072 31.8455 28.1771C31.759 27.947 31.6256 27.761 31.4454 27.6192C31.2653 27.4773 31.0356 27.4064 30.7565 27.4064C30.4775 27.4064 30.2478 27.4773 30.0677 27.6192C29.8875 27.761 29.7541 27.947 29.6676 28.1771C29.581 28.4072 29.5377 28.6555 29.5377 28.9219C29.5377 29.1883 29.581 29.4357 29.6676 29.6641C29.7541 29.8925 29.8875 30.0767 30.0677 30.2169C30.2478 30.357 30.4775 30.4271 30.7565 30.4271Z" fill="#1D1D1D"/>
<path d="M35.1758 26.9081V27.4271H33.0668V26.9081H35.1758ZM33.6815 25.9531H34.3068V29.7523C34.3068 29.9253 34.3324 30.0551 34.3836 30.1416C34.4366 30.2264 34.5037 30.2835 34.585 30.3129C34.668 30.3406 34.7554 30.3544 34.8473 30.3544C34.9162 30.3544 34.9727 30.3509 35.0168 30.344C35.061 30.3354 35.0963 30.3284 35.1228 30.3233L35.25 30.8734C35.2076 30.889 35.1484 30.9046 35.0725 30.9201C34.9965 30.9374 34.9003 30.9461 34.7837 30.9461C34.607 30.9461 34.4339 30.9089 34.2644 30.8345C34.0966 30.7601 33.957 30.6468 33.8457 30.4945C33.7362 30.3423 33.6815 30.1502 33.6815 29.9184V25.9531Z" fill="#1D1D1D"/>
<defs>
<radialGradient id="paint0_angular_866_95" cx="0" cy="0" r="1" gradientUnits="userSpaceOnUse" gradientTransform="translate(19.7332 13.0685) rotate(-166.462) scale(12.7508 10.9468)">
<stop stop-color="#7E68B0"/>
<stop offset="0.184461" stop-color="#008AD2"/>
<stop offset="0.353157" stop-color="#21B24B"/>
<stop offset="0.519702" stop-color="#FFC40E"/>
<stop offset="0.687523" stop-color="#F6821F"/>
<stop offset="0.853193" stop-color="#EF4023"/>
<stop offset="1" stop-color="#7E68B0"/>
</radialGradient>
</defs>
</svg>
